<svg id="graphics" xmlns="http://www.w3.org/2000/svg" viewBox="0 0 700 700"><defs><style>.cls-1{fill:#f03561;}.cls-2{fill:#fff;}.cls-3{fill:#452e63;}.cls-4{fill:#e79606;}</style></defs><title>BrainProcessesIconByBarsrsind</title><path class="cls-1" d="M137.28,278.2C142.33,174.55,228.37,91.4,332,89.76,439.75,88,528.18,172.39,533.21,278.58L568.36,407a10,10,0,0,1-9.67,12.69H512.06l-1.86,71.57a53,53,0,0,1-53.45,51.61l-53.44-.53v68H195.74V429A198,198,0,0,1,137.28,278.2Z"/><g id="map"><path class="cls-2" d="M456.31,177.94l-206.5-.33a14.84,14.84,0,0,0-12.63,7.07l-2.53,292.45A14.86,14.86,0,0,0,249.45,492l128.22.24a3.26,3.26,0,0,0,2.3-.95l89.95-89.55a3.26,3.26,0,0,0,1-2.31l.24-206.62A14.84,14.84,0,0,0,456.31,177.94Z"/><path class="cls-3" d="M377.93,492.21a3.26,3.26,0,0,1-3.26-3.26l.09-73.83a18.57,18.57,0,0,1,18.4-18.5l74.46-.48a3.26,3.26,0,0,1,2.3,5.57l-89.69,89.55A3.25,3.25,0,0,1,377.93,492.21Z"/></g><rect class="cls-3" x="318.03" y="204.26" width="129.18" height="17.5"/><rect class="cls-3" x="318.03" y="237.6" width="129.18" height="17.5"/><rect class="cls-3" x="318.03" y="270.93" width="129.18" height="17.5"/><rect class="cls-3" x="318.03" y="304.27" width="129.18" height="17.5"/><g id="sticker"><path class="cls-4" d="M135.86,274.52a4.09,4.09,0,0,1-3.24-1.8,7.35,7.35,0,0,1-1.34-4.35l.05-58c0-3.39,2.06-6.13,4.58-6.13l167.34.26c1.9,0,3.6,1.58,4.28,4a7.63,7.63,0,0,1-1.24,6.77l-20.44,24.37,20.4,24.44a7.64,7.64,0,0,1,1.23,6.77c-.68,2.38-2.38,3.95-4.28,3.95Z"/></g></svg>